<?xml version="1.0" encoding="utf-8" ?>
<svg xmlns="http://www.w3.org/2000/svg" xmlns:xlink="http://www.w3.org/1999/xlink" width="1024" height="1024">
	<path fill="#FCFCFB" d="M291.848 439.711C294.699 439.361 297.769 439.511 300.652 439.469C295.096 443.06 290.803 447.868 286.394 452.726L285.93 452.817C283.698 451.523 279.322 443.546 277.554 440.982C282.241 440.241 287.114 440.085 291.848 439.711Z"/>
	<path fill="#FCFCFB" d="M350.999 539.744C354.657 542.473 357.882 546.955 361.842 550.04C359.54 553.91 357.078 557.609 354.491 561.295C352.824 563.834 350.965 566.239 349.142 568.666C351.093 558.908 351.168 549.64 350.999 539.744Z"/>
	<path fill="#FCFCFB" d="M279.135 622.788C284.024 626.36 287.087 631.337 292.674 634.19C289.026 637.566 285.322 640.774 281.476 643.921C278.668 646.229 275.796 648.367 272.819 650.454C276.051 642.262 280.487 631.721 279.135 622.788Z"/>
	<path fill="#FCFCFB" d="M301.509 595.776C307.194 599.196 312.075 605.103 315.91 610.411C312.752 614.167 309.332 617.728 306.015 621.345C303.694 624.022 301.187 626.57 298.768 629.16C302.352 617.621 303.357 607.762 301.509 595.776Z"/>
	<path fill="#097B29" d="M254.393 253.438L254.572 253.599C254.819 254.683 253.035 256.134 252.269 256.999C241.153 269.531 232.908 284.445 224.041 298.6C223.796 298.549 223.705 298.227 223.554 298.026C224.066 296.063 224.525 294.089 225.025 292.123C229.665 273.895 238.36 262.916 254.393 253.438Z"/>
	<path fill="#FCFCFB" d="M324.522 565.746C326.975 567.337 329.295 569.978 331.495 571.959C334.685 574.83 338.007 577.512 341.375 580.169L330.255 594.782C327.727 598.051 325.059 601.22 322.441 604.417C324.827 591.59 326.511 578.739 324.522 565.746Z"/>
	<path fill="#FCFCFB" d="M269.512 442.677C270.406 442.477 269.89 442.516 271.062 442.721C270.139 445.457 265.382 448.711 263.466 451.405C259.653 456.77 257.263 462.176 255.186 468.403C252.229 465.833 249.431 463.049 246.586 460.355C242.925 456.816 239.173 453.29 236.266 449.089C247.122 446.266 258.461 444.598 269.512 442.677Z"/>
	<path fill="#FCFCFB" d="M176.231 619.214C179.899 621.752 185.214 629.988 188.384 633.728Q193.351 639.513 199.058 644.568C207.374 652.028 216.533 658.639 226.65 663.437C231.238 665.613 236.477 667.122 240.77 669.795C240.888 669.868 241.003 669.945 241.12 670.02C242.615 661.68 242.777 653.963 242.421 645.527Q243.831 646.424 245.297 647.228Q246.763 648.031 248.278 648.736Q249.794 649.442 251.352 650.047Q252.91 650.651 254.505 651.153Q256.099 651.654 257.723 652.051Q259.347 652.447 260.993 652.735Q262.64 653.024 264.301 653.205Q265.963 653.386 267.633 653.457L266.01 655.83C250.49 669.209 230.558 677.973 211.261 684.343C192.205 668.943 179.573 643.179 176.231 619.214Z"/>
	<path fill="#17CF2F" d="M487.408 189.342C489.314 184.805 505.077 171.034 509.849 165.638C519.299 154.956 527.62 141.555 535.244 129.508C542.447 118.125 548.411 105.222 553.015 92.5575C555.032 87.0115 557.086 75.1307 559.975 70.9309C560.377 113.107 552.099 146.84 530.445 183.121Q524.983 183.009 519.53 183.345Q514.078 183.681 508.671 184.463Q503.264 185.244 497.939 186.466Q492.615 187.688 487.408 189.342Z"/>
	<path fill="#51E750" d="M440.028 188.175C452.798 182.817 465.56 175.095 476.899 167.13C523.081 134.688 548.983 105.663 558.953 48.2254Q560.18 59.5459 559.975 70.9309C557.086 75.1307 555.032 87.0115 553.015 92.5575C548.411 105.222 542.447 118.125 535.244 129.508C527.62 141.555 519.299 154.956 509.849 165.638C505.077 171.034 489.314 184.805 487.408 189.342C484.866 190.23 475.713 187.845 472.484 187.509C461.87 186.405 450.606 186.952 440.028 188.175Z"/>
	<path fill="#FCFCFB" d="M234.502 449.598C233.818 452.641 229.707 456.939 227.905 459.813C222.556 468.343 220.825 477.158 219.727 486.985C211.031 477.878 205.87 471.823 200.233 460.601C190.299 475.414 185.631 487.967 185.048 505.77C175.704 497.661 168.881 488.014 162.277 477.634C160.87 480.852 160.01 484.453 159.36 487.892C155.069 510.612 165.11 530.549 177.612 548.703C180.069 552.308 182.817 555.747 185.45 559.227C155.272 546.682 137.764 529.859 121.666 501.917C153.442 474.059 194.589 460.811 234.502 449.598Z"/>
	<path fill="#51E750" d="M532.821 202.549C556.12 193.051 578.698 181.707 601.559 171.191C616.106 164.499 630.968 158.119 644.816 150.048C673.905 133.095 694.679 107.669 709.699 77.9142C714.01 69.3738 717.48 60.6441 721.409 51.9533C720.905 55.6085 720.379 59.2262 719.603 62.8347C717.21 65.1083 707.379 92.6876 704.911 98.3012Q701.049 107.042 696.376 115.376C689.631 127.299 681.79 139.814 672.91 150.263C666.334 158.001 658.714 164.745 651.096 171.428Q643.515 178.135 635.632 184.483Q627.748 190.831 619.579 196.806Q611.41 202.782 602.972 208.372Q594.535 213.963 585.847 219.156C571.848 227.435 557.114 234.362 543.473 243.288C533.71 229.637 530.988 219.074 532.821 202.549Z"/>
	<path fill="#17CF2F" d="M543.473 243.288C557.114 234.362 571.848 227.435 585.847 219.156Q594.535 213.963 602.972 208.372Q611.41 202.782 619.579 196.806Q627.748 190.831 635.632 184.483Q643.515 178.135 651.096 171.428C658.714 164.745 666.334 158.001 672.91 150.263C681.79 139.814 689.631 127.299 696.376 115.376Q701.049 107.042 704.911 98.3012C707.379 92.6876 717.21 65.1083 719.603 62.8347C718.253 73.4523 715.991 83.9151 713.509 94.3189C701.569 144.373 678.836 184.519 646.224 223.969C635.918 236.437 625.16 247.624 613.28 258.591C609.64 261.952 606.064 265.612 602.176 268.679C598.854 271.299 596.053 272.27 591.814 271.784C574.683 269.823 554.655 258.123 544.29 244.405Q543.874 243.852 543.473 243.288Z"/>
	<path fill="#EE252A" d="M398.005 471.35L398.285 471.862C392.516 482.09 387.432 492.439 382.75 503.217C377.679 514.889 373.151 527.572 366.028 538.152C360.271 537.961 354.861 536.776 349.54 534.606C348.536 532.355 348.077 529.991 346.812 527.836C346.809 528.848 346.75 528.591 346.909 529.372C349.618 542.657 345.463 556.914 341.306 569.501C334.413 566.187 327.252 563.972 320.177 561.117C321.912 566.201 322.191 571.427 321.728 576.756C321.177 583.106 319.243 590.773 314.214 595.02C310.341 596.389 302.869 593.586 298.8 592.773C298.993 594.849 299.291 596.979 299.242 599.067C299.036 607.731 296.02 615.33 289.8 621.366C284.99 619.166 279.855 617.851 275.065 615.505C275.666 617.443 276.303 619.461 276.372 621.504C276.629 629.237 272.211 640.128 267.151 645.92C261.518 645.795 256.959 644.623 251.768 642.516C267.647 605.133 267.786 566.193 283.455 528.705Q285.95 523.062 288.862 517.622C297.194 501.947 307.736 489.817 324.934 484.091C331.448 481.922 338.256 480.587 344.837 478.584C337.598 483.75 330.821 488.763 324.815 495.403C302.151 520.458 289.015 572.463 290.629 606.138C292.041 595.6 293.283 585.138 295.835 574.794C301.794 550.636 315.76 520.819 332.795 502.655C350.634 483.635 371.697 472.184 398.005 471.35Z"/>
	<path fill="#054F1A" d="M515.495 544.936C515.951 544.76 516.41 544.591 516.874 544.437C527.924 540.762 539.757 538.39 551.212 536.372C599.707 527.827 659.111 529.767 706.423 543.702C715.813 546.467 724.981 550.174 734.022 553.902C739.598 556.202 745.322 558.423 750.697 561.165C753.686 578.917 757.25 596.19 758.449 614.218C759.799 634.531 759.405 655.442 756.675 675.63C750.564 720.822 732.765 769.505 706.295 806.794C686.612 834.524 663.639 858.063 637.36 879.572C631.362 884.48 625.369 889.704 618.986 894.092C603.672 904.617 587.739 914.771 571.8 924.313C567.995 926.59 554.696 933.342 552.862 935.684L553.09 936.161C545.425 940.415 535.633 942.911 527.385 945.896C508.297 952.805 489.31 959.723 470.006 966.02C461.877 968.671 452.999 970.458 445.338 974.269C451.506 968.85 457.86 963.621 463.89 958.049Q483.722 939.699 502.106 919.899Q520.491 900.098 537.322 878.962C557.975 874.803 578.152 869.961 598.262 863.651C606.278 861.136 614.412 858.764 622.033 855.185C614.301 856.562 606.281 857.046 598.473 858.044C581.893 860.162 565.277 862.589 548.547 863.076C567.068 839.258 582.087 813.677 595.672 786.796C602.993 784.655 610.6 783.379 617.961 781.232C639.159 775.048 661.433 763.671 677.282 748.068C671.942 750.807 666.932 754.115 661.495 756.682C643.171 765.332 623.019 769.106 603.007 771.194C612.015 748.343 620.434 725.319 623.542 700.846C630.181 698.591 636.663 696.293 642.816 692.867C661.385 682.527 677.552 663.894 687.642 645.323C671.072 664.722 649.99 681.428 623.969 684.481C624.07 665.575 620.857 652.59 613.966 635.059C616.815 633.705 619.705 632.369 622.413 630.749C642.188 618.919 655.051 595.706 660.468 573.759L659.447 575.887C649.195 597.008 631.359 615.921 608.934 623.698C605.35 616.909 601.907 610.093 597.41 603.837C577.651 576.355 546.776 556.618 515.495 544.936Z"/>
	<path fill="#097B29" d="M623.218 254.583C680.572 253.131 753.973 286.303 801.655 316.08C771.167 309.125 732.178 308.977 701.016 311.381C711.273 314.284 721.536 316.551 731.551 320.299C742.747 324.489 753.467 329.68 764.219 334.879C779.806 342.415 795.122 350.171 809.965 359.115C819.189 364.673 827.854 370.965 836.554 377.293C855.771 391.272 875.081 406.099 889.988 424.834Q887.223 422.974 884.402 421.198Q881.581 419.423 878.708 417.735Q875.835 416.046 872.911 414.446Q869.988 412.845 867.017 411.335Q864.047 409.824 861.031 408.404Q858.016 406.985 854.959 405.658Q851.901 404.331 848.805 403.097Q845.709 401.864 842.577 400.725Q839.445 399.587 836.279 398.544Q833.114 397.501 829.918 396.555Q826.722 395.609 823.499 394.761Q820.276 393.913 817.029 393.163Q813.782 392.413 810.513 391.763Q807.245 391.112 803.958 390.561Q800.671 390.011 797.368 389.56Q794.066 389.11 790.752 388.76C796.988 392.402 803.33 395.708 809.26 399.855C825.173 410.987 839.089 424.072 852.392 438.15Q856.368 442.327 860.217 446.62Q864.067 450.914 867.787 455.32Q871.507 459.726 875.094 464.241Q878.681 468.756 882.132 473.376Q885.583 477.995 888.896 482.716Q892.208 487.436 895.378 492.253Q898.548 497.07 901.574 501.979Q904.599 506.888 907.477 511.885Q910.355 516.882 913.083 521.963Q915.811 527.043 918.386 532.203Q920.961 537.362 923.382 542.596Q925.803 547.83 928.067 553.133Q930.33 558.437 932.435 563.805Q934.54 569.174 936.485 574.603Q938.429 580.031 940.211 585.516Q941.992 591 943.61 596.535C928.428 567.675 906.397 540.775 877.153 525.203C885.206 540.53 891.585 556.195 897.593 572.424Q901.403 582.707 904.792 593.137Q908.18 603.567 911.142 614.126Q914.103 624.685 916.633 635.356Q919.162 646.026 921.256 656.791Q923.349 667.556 925.002 678.397Q926.656 689.238 927.867 700.138Q929.078 711.037 929.845 721.977Q930.612 732.916 930.933 743.878C920.938 718.987 910.07 694.18 896.913 670.773C888.701 656.163 879.406 642.253 870.384 628.146C874.046 688.376 854.411 758.462 823.779 810.153C813.259 827.906 800.995 843.989 787.415 859.465C807.347 822.228 817.045 787.915 816.428 745.303C804.955 771.751 782.377 792.949 761.076 811.707C748.153 823.087 735.097 834.431 721.326 844.781C672.421 881.532 611.665 913.415 554.52 935.627Q553.81 935.907 553.09 936.161L552.862 935.684C554.696 933.342 567.995 926.59 571.8 924.313C587.739 914.771 603.672 904.617 618.986 894.092C625.369 889.704 631.362 884.48 637.36 879.572C663.639 858.063 686.612 834.524 706.295 806.794C732.765 769.505 750.564 720.822 756.675 675.63C759.405 655.442 759.799 634.531 758.449 614.218C757.25 596.19 753.686 578.917 750.697 561.165C766.956 568.797 781.371 579.263 796.975 587.958C785.433 542.826 756.7 491.908 725.23 457.66C713.351 444.732 700.291 433.412 686.363 422.763C730.921 415.133 778.931 423.257 819.416 443.059C808.54 431.627 798.831 419.119 787.897 407.69C757.309 375.716 727.465 352.685 687.887 332.621C676.463 326.83 664.738 321.213 652.745 316.694Q651.011 310.414 648.858 304.264Q646.706 298.114 644.145 292.123Q641.584 286.132 638.627 280.326Q635.669 274.521 632.328 268.927C629.436 264.054 626.158 259.422 623.218 254.583Z"/>
	<path fill="#097B29" d="M484.306 198.712C495.564 197.527 508.235 198.213 519.409 199.676C516.094 211.685 515.85 222.541 520.204 234.376C527.715 254.79 545.408 270.327 564.752 279.295C581.249 286.943 597.383 289.59 614.609 283.284C622.963 289.971 629.787 302.16 634.044 311.911C599.218 304.676 556.188 305.158 520.736 308.4C528.871 309.582 537.165 310.054 545.344 310.944C553.939 311.88 562.535 313.312 571.033 314.891C644.875 328.614 704.019 358.247 763.08 403.612C754.253 401.091 745.466 398.217 736.495 396.254C691.668 386.443 647.538 390.266 606.636 411.941C655.324 431.69 694.102 461.23 727.982 501.265C736.576 511.422 744.996 521.533 751.873 532.969Q749.735 531.67 747.571 530.415Q745.407 529.16 743.217 527.949Q741.028 526.739 738.814 525.573Q736.6 524.408 734.363 523.288Q732.126 522.168 729.867 521.094Q727.607 520.02 725.326 518.993Q723.045 517.965 720.743 516.985Q718.442 516.004 716.12 515.071Q713.799 514.138 711.459 513.252Q709.12 512.367 706.762 511.529Q704.405 510.692 702.031 509.903Q699.657 509.114 697.267 508.374Q694.877 507.633 692.473 506.942Q690.068 506.251 687.65 505.609Q685.232 504.967 682.802 504.375Q680.371 503.782 677.929 503.24Q675.487 502.698 673.034 502.205Q670.581 501.713 668.119 501.271Q665.656 500.829 663.185 500.437Q660.714 500.046 658.236 499.705Q655.757 499.364 653.272 499.074Q650.788 498.784 648.297 498.545Q645.807 498.306 643.312 498.117Q640.818 497.929 638.32 497.792Q635.822 497.655 633.321 497.569Q630.821 497.483 628.319 497.448Q625.818 497.414 623.316 497.43Q620.815 497.447 618.314 497.514Q615.813 497.582 613.314 497.701Q610.815 497.819 608.319 497.989Q605.823 498.159 603.331 498.38Q600.839 498.601 598.352 498.873C586.845 500.119 575.408 502.462 564.127 505.007C482.332 523.459 408.471 572.023 363.673 643.481C353.443 659.8 345.254 679.636 349.846 699.178C352.76 711.579 361.646 718.832 372.043 725.256C344.739 727.462 319.255 725.586 295.304 710.958Q293.859 714.336 292.75 717.839C288.183 732.241 290.562 742.077 297.232 755.061C262.203 745.741 235.964 727.768 211.951 700.883C244.616 693.297 272.504 669.959 296.153 647.162C322.89 621.547 360.157 579.085 375.702 545.827C391.679 511.647 397.9 480.161 422.463 449.709C441.793 425.743 481.698 396.16 508.136 380.113C519.653 373.123 531.48 367.198 543.206 360.677C520.316 366.48 496.563 377.019 475.998 388.593C450.864 402.739 426.21 419.781 397.964 427.125C373.562 433.469 344.664 428.446 319.304 428.445C290.484 428.444 262.858 431.823 234.766 438.041C197.955 446.189 152.108 463.185 125.188 490.496C117.588 498.205 111.817 507.151 106.027 516.223C99.9257 506.767 95.1076 496.151 91.1457 485.62C76.0454 445.484 75.7313 397.127 93.5639 357.905C98.4251 368.745 104.646 377.85 112.109 386.996C121.773 379.064 133.943 373.554 144.611 367.042C162.791 355.945 180.263 343.42 197.893 331.462C207.429 324.994 216.944 318.572 226.28 311.815C231.244 308.222 236.597 304.742 240.84 300.294C244.513 296.443 247.366 291.816 250.379 287.448C255.545 279.957 260.616 272.39 266.081 265.112C274.248 254.236 282.4 244.928 293.782 237.234C309.082 226.893 328.781 219.315 346.434 214.1C353.105 212.129 359.912 210.716 366.582 208.688C359.816 213.595 352.572 217.898 345.817 222.874C325.56 237.798 308.487 255.057 292.966 274.81C286.264 283.34 279.303 292.508 275.042 302.517Q279.845 296.349 284.966 290.442C334.512 233.791 410.234 203.683 484.306 198.712Z"/>
	<path d="M186.044 361.024C194.352 362.074 204.132 370.924 210.158 376.246C204.282 375.093 197.586 374.504 191.987 376.984C181.461 381.646 175.182 396.369 171.262 406.38C168.903 412.512 167.412 418.628 166.09 425.042Q165.936 422.218 165.919 419.39Q165.901 416.562 166.02 413.736Q166.139 410.911 166.394 408.094Q166.649 405.278 167.04 402.477Q167.431 399.676 167.957 396.897Q168.482 394.118 169.141 391.368Q169.8 388.617 170.591 385.902Q171.382 383.187 172.303 380.513C175.015 372.738 178.216 364.797 186.044 361.024Z"/>
	<path d="M441.272 246.646C462.363 245.308 487.377 255.108 504.884 266.814C499.585 265.685 494.258 264.362 488.803 264.476C484.043 264.575 479.468 265.836 475.054 267.547C460.634 273.136 452.139 283.253 445.882 297.154C442.207 305.321 439.981 314.463 435.277 322.101C430.369 330.071 421.651 337.971 413.68 342.817C388.84 357.918 352.731 348.696 326.226 342.326C298.415 336.331 280.364 333.602 251.714 335.485C261.059 332.328 271.125 330.744 280.73 328.487C300.649 323.806 324.455 316.757 342.192 306.467C370.939 289.792 409.203 251.706 441.272 246.646Z"/>
	<path fill="#51E750" d="M420.186 274.494L420.871 275.012C421.225 277.845 420.738 280.937 420.525 283.779C419.747 294.157 418.355 303.005 412.169 311.673C405.009 321.708 393.085 329.433 380.851 331.355C367.86 333.396 354.081 329.718 343.477 322.085L347.942 319.069C353.773 315.216 359.224 310.728 364.983 306.746C368.734 313.723 373.24 320.261 377.711 326.788C379.871 315.833 382.336 304.901 384.647 293.972C395.522 285.783 407.562 279.488 420.186 274.494Z"/>
</svg>
